<!-- Generator: Adobe Illustrator 24.2.1, SVG Export Plug-In  -->
<svg version="1.1" xmlns="http://www.w3.org/2000/svg" xmlns:xlink="http://www.w3.org/1999/xlink" x="0px" y="0px" width="544.2px"
     height="544.2px" viewBox="0 0 544.2 544.2" style="overflow:visible;enable-background:new 0 0 544.2 544.2;"
     xml:space="preserve">
<defs>
</defs>
<g>
    <g>
        <path style="fill:#1099FF;" d="M272.1,0C2.1,0,0,121.8,0,272.1s2.1,272.1,272.1,272.1s272.1-121.8,272.1-272.1S542.1,0,272.1,0z"
            />
    </g>
    <path style="fill:#FFFFFF;" d="M385.7,254.6c-1.8-8.7-8.7-14.2-18.1-14.2c-44.2,0-88.4,0-132.6,0c-3.6,0-7.2,0-10.8,0
        c-0.1-12.7-0.4-41.9,0.3-48.9c2.1-23.2,20.6-41,43.9-42.9c27-2.2,50.8,19,51.4,46c0.2,8.6,0.1,0,0,8.6c0,3.2,1.1,5.3,5.1,5.3
        c4,0,19.3,0,24.8,0c5.5,0,5.1-5.3,5.1-5.8c0-8.2,0,1.8,0-6.4c-0.1-15.5-4-30-12.1-43.1c-22.4-36.3-67.4-50-105.9-31.7
        c-26.2,12.5-41.8,33.6-46.6,62.4c-1.7,10.1-1.1,39.4-1,56.7c-4.4,0-8.8,0-13.2,0c-8.2,0-15,4.9-17.1,12.5c-0.7,2.4-0.7,5-0.8,7.5
        c0,57.3,0,94.6,0,151.9c0,1.4,0,2.9,0.3,4.3c1.7,8.7,8.7,14.3,18,14.3c31.9,0,63.7,0,95.6,0c31.8,0,63.6,0,95.4,0
        c11.2,0,18.6-7.3,18.6-18.5c0-57.8,0-95.7,0-153.5C386,257.5,386,256,385.7,254.6z M251,290.5c4-5.4,9-9.2,15.6-10.7
        c7.4-1.7,14.1-0.1,20.2,4.4c6,4.5,9.8,10.5,11.8,17.6c2.9,10.3,2,20.2-3.1,29.6c-3.2,6-7.9,10.7-14.3,13.3
        c-8,3.3-15.6,2.4-22.8-2.4c-6.8-4.5-10.8-10.9-13-18.6c-1.1-3.6-1.5-7.1-1.5-12.6C244,304.7,246.1,297.2,251,290.5z M320.1,391.2
        c-1.3,0.4-2.7,0.5-4,0.5c-14.7,0-29.4,0-44,0c-14.7,0-29.4,0-44,0c-4.4,0-8-1.7-10.5-5.5c-2.1-3.2-2.3-6.7-0.6-10.2
        c3.8-7.6,9.6-13.5,16.6-18.3c3.5-2.3,7.2-4.3,11.1-5.8c3.5-1.4,7-1.1,10.2,0.7c6.4,3.6,13.2,5.1,20.4,4.5c5.1-0.4,9.9-2,14.3-4.6
        c3.5-2.1,7.2-2.2,10.8-0.8c8,3.2,15,7.9,20.7,14.4c2.3,2.6,4.2,5.5,5.9,8.6C330.7,381.8,326.8,389.2,320.1,391.2z"/>
</g>
</svg>
